<?xml version="1.0" standalone="no"?>
<!DOCTYPE svg PUBLIC "-//W3C//DTD SVG 20010904//EN"
 "http://www.w3.org/TR/2001/REC-SVG-20010904/DTD/svg10.dtd">
<svg version="1.0" xmlns="http://www.w3.org/2000/svg"
 width="512.000000pt" height="512.000000pt" viewBox="0 0 512.000000 512.000000"
 preserveAspectRatio="xMidYMid meet">
<metadata>
Created by potrace 1.14, written by Peter Selinger 2001-2017
</metadata>
<g transform="translate(0.000000,512.000000) scale(0.100000,-0.100000)"
fill="#000000" stroke="none">
<path d="M2427 4804 c-1 -1 -36 -5 -78 -8 -42 -4 -85 -8 -95 -10 -11 -2 -39
-7 -64 -11 -25 -4 -54 -9 -65 -12 -11 -2 -31 -6 -45 -9 -69 -13 -226 -60 -317
-94 -99 -38 -299 -133 -352 -169 -14 -10 -53 -35 -86 -56 -64 -42 -157 -111
-215 -160 -86 -73 -271 -267 -329 -345 -34 -47 -68 -92 -74 -100 -30 -37 -166
-276 -172 -300 0 -3 -9 -20 -19 -39 -10 -18 -29 -63 -42 -100 -14 -36 -29 -75
-34 -86 -18 -40 -50 -153 -52 -182 -1 -7 -5 -13 -9 -13 -4 0 -6 -8 -4 -17 1
-10 -2 -28 -6 -41 -5 -13 -11 -38 -14 -55 -5 -36 -13 -72 -15 -72 -1 0 -3 -20
-5 -45 -3 -25 -7 -65 -11 -90 -10 -77 -11 -404 -1 -418 6 -8 5 -12 -4 -12 -9
0 -10 -3 -4 -8 6 -4 11 -18 13 -31 3 -17 0 -21 -10 -15 -11 6 -11 5 0 -9 8 -9
14 -37 15 -62 1 -24 5 -45 9 -45 4 0 7 -10 7 -22 -1 -13 2 -32 5 -43 16 -58
24 -100 20 -106 -2 -4 1 -11 7 -14 5 -4 8 -13 5 -20 -2 -7 -2 -16 2 -20 4 -4
7 -10 8 -13 0 -4 4 -14 7 -22 4 -8 8 -24 10 -35 2 -11 9 -33 15 -48 7 -15 11
-31 10 -35 -1 -4 5 -21 14 -37 9 -17 18 -39 20 -50 1 -11 5 -22 8 -25 10 -10
55 -114 53 -122 -2 -4 2 -8 7 -8 6 0 10 -9 10 -20 0 -11 5 -20 10 -20 6 0 10
-6 10 -14 0 -7 9 -25 21 -40 11 -15 18 -33 15 -41 -3 -8 0 -14 7 -12 7 1 11
-6 11 -15 -1 -10 1 -16 5 -13 4 2 16 -10 26 -28 11 -18 17 -33 15 -34 -3 -1 4
-8 14 -16 11 -8 16 -19 12 -26 -4 -6 -4 -10 1 -9 4 2 10 -2 12 -7 2 -6 12 -16
22 -23 11 -7 19 -18 19 -23 0 -6 6 -16 13 -23 7 -8 29 -33 48 -56 18 -23 44
-53 56 -65 12 -13 19 -26 16 -29 -4 -3 1 -6 10 -6 10 0 17 -4 17 -10 0 -5 9
-18 21 -29 13 -11 18 -24 14 -32 -6 -8 -4 -10 4 -4 9 5 29 -9 57 -39 25 -25
49 -46 54 -46 5 0 12 -9 15 -21 4 -11 9 -18 12 -15 10 9 33 -15 26 -27 -3 -6
-1 -7 6 -3 7 5 22 -3 36 -18 13 -14 27 -26 31 -26 3 0 19 -10 34 -22 54 -43
115 -86 150 -106 82 -45 115 -67 122 -77 4 -5 8 -6 8 -2 0 4 9 3 20 -3 12 -6
17 -17 14 -28 -4 -12 -3 -13 3 -4 7 9 17 10 41 1 18 -6 32 -15 32 -20 0 -5 3
-8 8 -7 12 4 82 -26 82 -34 0 -5 6 -8 13 -6 18 4 77 -23 77 -36 0 -6 5 -4 10
4 6 10 10 11 10 3 0 -7 3 -12 8 -12 21 4 43 -2 38 -10 -3 -4 2 -8 12 -8 33 0
43 -3 38 -11 -3 -4 5 -8 17 -9 60 -1 68 -3 61 -15 -5 -9 -2 -9 9 1 12 9 17 10
17 2 0 -7 4 -10 8 -7 5 3 21 -1 36 -9 14 -8 24 -9 20 -3 -4 6 -1 9 7 6 8 -3
14 -10 14 -16 0 -5 4 -14 8 -19 5 -4 7 -1 5 7 -2 11 5 14 27 12 17 -2 32 -8
33 -13 3 -6 10 -5 18 2 8 6 14 7 14 2 0 -6 11 -9 25 -8 14 2 25 -1 25 -7 0 -7
5 -6 14 1 9 8 16 8 20 2 4 -6 14 -7 23 -4 12 5 14 3 8 -8 -7 -12 -6 -12 7 -1
13 10 17 10 21 0 4 -10 6 -10 6 1 1 11 4 11 16 1 8 -7 15 -9 15 -5 0 4 8 1 17
-6 9 -8 14 -9 11 -4 -4 7 54 10 165 9 95 -1 177 3 184 8 7 5 14 5 18 -2 5 -8
11 -8 21 1 7 6 20 9 27 6 8 -3 20 -1 28 3 8 5 19 4 28 -3 12 -10 13 -9 7 2 -6
9 -5 12 5 9 8 -3 22 -1 33 4 14 8 17 7 11 -4 -6 -10 -5 -11 6 0 7 6 25 12 39
12 15 0 30 3 34 7 3 4 14 8 24 9 9 1 31 5 47 9 17 4 40 8 53 9 12 0 22 5 22 9
0 5 4 6 8 3 4 -2 27 4 50 14 23 11 42 17 42 14 0 -2 13 2 30 11 16 8 36 15 44
15 9 0 50 16 93 35 42 20 82 34 90 31 7 -3 12 0 10 7 -1 7 4 11 11 10 6 -2 12
1 12 6 0 9 54 35 66 31 4 -1 10 2 13 7 12 18 96 60 110 55 10 -3 12 0 7 13 -5
15 -2 16 21 11 20 -5 24 -4 14 3 -12 7 -7 13 22 27 20 10 37 22 37 27 0 5 9 7
19 4 12 -3 18 0 15 7 -5 12 113 103 128 99 4 -2 7 1 5 6 -1 5 9 19 23 31 14
12 44 39 68 61 23 22 46 37 52 34 5 -3 7 0 5 8 -6 14 54 74 68 69 5 -1 6 1 3
6 -2 4 12 26 32 49 20 23 46 54 57 69 11 16 28 36 38 46 9 10 17 21 17 26 1
10 37 52 45 52 3 0 3 -5 -1 -12 -4 -7 -3 -8 5 -4 9 6 9 11 0 22 -9 11 -8 15 5
20 9 3 14 9 12 13 -2 3 7 20 21 36 14 17 22 24 18 16 -6 -9 -4 -12 4 -7 6 4 9
11 6 16 -3 5 2 24 11 41 13 25 18 29 26 18 8 -11 9 -10 4 4 -6 20 3 49 14 42
4 -3 7 3 6 12 0 10 4 18 11 18 6 0 15 4 20 9 5 5 3 6 -4 2 -8 -4 -13 -1 -13 8
0 9 5 16 11 16 5 0 8 4 4 9 -3 5 2 17 11 25 8 9 13 16 9 16 -3 0 0 10 7 22 7
13 13 25 13 28 1 3 9 22 18 44 9 21 17 42 17 47 0 5 4 9 10 9 5 0 9 3 8 8 -6
17 25 101 35 95 5 -3 7 -1 4 4 -8 13 3 74 12 69 3 -2 7 6 7 17 1 12 4 31 7 42
10 37 29 120 33 140 1 11 5 29 8 41 5 23 14 93 21 162 2 23 7 48 11 54 5 7 3
8 -5 3 -10 -6 -11 -3 -2 12 6 11 7 23 3 27 -3 4 0 11 8 16 8 6 10 10 4 10 -7
0 -11 14 -10 30 0 17 5 30 10 30 6 0 5 5 -1 11 -7 7 -8 21 -3 39 5 16 6 31 2
34 -3 3 -6 35 -7 71 -1 36 -5 68 -9 72 -3 3 -1 12 5 20 6 7 7 13 2 13 -5 0 -9
15 -10 33 -1 17 -6 61 -13 97 -6 36 -12 74 -14 85 -1 11 -5 34 -10 50 -4 17
-12 50 -18 75 -6 25 -22 81 -36 125 -15 44 -27 82 -27 85 -1 3 -7 18 -13 33
-7 16 -12 30 -12 33 0 13 -95 208 -140 288 -51 93 -159 247 -228 329 -71 84
-267 271 -352 335 -52 40 -100 77 -107 82 -7 6 -17 10 -23 10 -5 0 -10 3 -10
8 0 4 -10 12 -23 18 -12 6 -60 33 -107 60 -170 99 -420 198 -580 229 -8 2 -16
4 -17 5 -2 2 -11 3 -20 4 -10 1 -31 5 -48 9 -16 4 -46 9 -65 12 -19 3 -46 7
-60 10 -66 12 -158 18 -293 19 -82 1 -149 1 -150 0z"/>
<path d="M4176 982 c-3 -5 1 -9 9 -9 8 0 12 4 9 9 -3 4 -7 8 -9 8 -2 0 -6 -4
-9 -8z"/>
<path d="M1176 762 c-3 -5 1 -9 9 -9 8 0 12 4 9 9 -3 4 -7 8 -9 8 -2 0 -6 -4
-9 -8z"/>
<path d="M1253 705 c0 -8 4 -12 9 -9 5 3 6 10 3 15 -9 13 -12 11 -12 -6z"/>
<path d="M1633 485 c0 -8 4 -12 9 -9 5 3 6 10 3 15 -9 13 -12 11 -12 -6z"/>
<path d="M1590 479 c0 -5 5 -7 10 -4 6 3 10 8 10 11 0 2 -4 4 -10 4 -5 0 -10
-5 -10 -11z"/>
<path d="M3215 380 c3 -5 8 -10 11 -10 2 0 4 5 4 10 0 6 -5 10 -11 10 -5 0 -7
-4 -4 -10z"/>
<path d="M2014 336 c1 -8 5 -18 8 -22 4 -3 5 1 4 10 -1 8 -5 18 -8 22 -4 3 -5
-1 -4 -10z"/>
<path d="M2250 305 c0 -7 30 -13 34 -7 3 4 -4 9 -15 9 -10 1 -19 0 -19 -2z"/>
<path d="M2855 301 c-3 -5 -2 -12 3 -15 5 -3 9 1 9 9 0 17 -3 19 -12 6z"/>
<path d="M2915 301 c-3 -5 -2 -12 3 -15 5 -3 9 1 9 9 0 17 -3 19 -12 6z"/>
<path d="M2307 279 c7 -7 15 -10 18 -7 3 3 -2 9 -12 12 -14 6 -15 5 -6 -5z"/>
<path d="M2633 265 c0 -8 4 -12 9 -9 5 3 6 10 3 15 -9 13 -12 11 -12 -6z"/>
</g>
</svg>
